<?xml version="1.0" encoding="UTF-8"?>
<svg xmlns="http://www.w3.org/2000/svg" xmlns:xlink="http://www.w3.org/1999/xlink" width="30pt" height="30.000001pt" viewBox="0 0 30 30.000001" version="1.2">
<defs>
<clipPath id="clip1">
  <path d="M 0.484375 0 L 29.515625 0 L 29.515625 27.570312 L 0.484375 27.570312 Z M 0.484375 0 "/>
</clipPath>
</defs>
<g id="surface1">
<path style=" stroke:none;fill-rule:nonzero;fill:rgb(100%,54.899597%,0%);fill-opacity:1;" d="M 28.164062 13.507812 L 1.839844 13.507812 L 1.839844 5.445312 L 28.164062 5.445312 Z M 28.164062 13.507812 "/>
<path style=" stroke:none;fill-rule:nonzero;fill:rgb(18.429565%,28.239441%,34.509277%);fill-opacity:1;" d="M 28.164062 26.417969 L 1.839844 26.417969 L 1.839844 13.507812 L 28.164062 13.507812 Z M 28.164062 26.417969 "/>
<g clip-path="url(#clip1)" clip-rule="nonzero">
<path style=" stroke:none;fill-rule:nonzero;fill:rgb(100%,100%,100%);fill-opacity:1;" d="M 27.464844 4.324219 L 22.777344 4.324219 L 22.777344 2.03125 C 22.777344 0.847656 22.15625 -0.0117188 21.300781 -0.0117188 L 9.148438 -0.0117188 C 8.292969 -0.0117188 7.671875 0.847656 7.671875 2.03125 L 7.671875 4.324219 L 2.539062 4.324219 C 1.40625 4.324219 0.488281 5.242188 0.488281 6.367188 L 0.488281 25.53125 C 0.488281 26.65625 1.40625 27.574219 2.539062 27.574219 L 27.464844 27.574219 C 28.59375 27.574219 29.511719 26.65625 29.511719 25.53125 L 29.511719 6.367188 C 29.511719 5.242188 28.59375 4.324219 27.464844 4.324219 Z M 9.535156 2.03125 C 9.535156 1.960938 9.539062 1.898438 9.546875 1.847656 L 20.902344 1.847656 C 20.910156 1.898438 20.914062 1.960938 20.914062 2.03125 L 20.914062 4.324219 L 9.535156 4.324219 Z M 27.652344 25.53125 C 27.652344 25.632812 27.566406 25.714844 27.464844 25.714844 L 2.539062 25.714844 C 2.433594 25.714844 2.351562 25.632812 2.351562 25.53125 L 2.351562 14.480469 L 11.089844 14.480469 L 11.089844 15.039062 C 11.089844 15.285156 11.289062 15.484375 11.535156 15.484375 L 18.914062 15.484375 C 19.160156 15.484375 19.359375 15.285156 19.359375 15.039062 L 19.359375 14.480469 L 27.652344 14.480469 Z M 27.652344 12.625 L 2.351562 12.625 L 2.351562 6.367188 C 2.351562 6.265625 2.433594 6.179688 2.539062 6.179688 L 27.464844 6.179688 C 27.566406 6.179688 27.652344 6.265625 27.652344 6.367188 Z M 27.652344 12.625 "/>
</g>
</g>
</svg>
