<?xml version="1.0" encoding="UTF-8"?>
<svg xmlns="http://www.w3.org/2000/svg" xmlns:xlink="http://www.w3.org/1999/xlink" width="30pt" height="30.000001pt" viewBox="0 0 30 30.000001" version="1.2">
<defs>
<clipPath id="clip1">
  <path d="M 0.484375 0.6875 L 29.515625 0.6875 L 29.515625 28.253906 L 0.484375 28.253906 Z M 0.484375 0.6875 "/>
</clipPath>
</defs>
<g id="surface1">
<path style=" stroke:none;fill-rule:nonzero;fill:rgb(100%,54.899597%,0%);fill-opacity:1;" d="M 28.164062 14.195312 L 1.839844 14.195312 L 1.839844 6.132812 L 28.164062 6.132812 Z M 28.164062 14.195312 "/>
<path style=" stroke:none;fill-rule:nonzero;fill:rgb(100%,100%,100%);fill-opacity:1;" d="M 28.164062 27.105469 L 1.839844 27.105469 L 1.839844 14.195312 L 28.164062 14.195312 Z M 28.164062 27.105469 "/>
<g clip-path="url(#clip1)" clip-rule="nonzero">
<path style=" stroke:none;fill-rule:nonzero;fill:rgb(18.429565%,28.239441%,34.509277%);fill-opacity:1;" d="M 27.464844 5.011719 L 22.777344 5.011719 L 22.777344 2.71875 C 22.777344 1.535156 22.15625 0.675781 21.300781 0.675781 L 9.148438 0.675781 C 8.292969 0.675781 7.671875 1.535156 7.671875 2.71875 L 7.671875 5.011719 L 2.539062 5.011719 C 1.40625 5.011719 0.488281 5.925781 0.488281 7.054688 L 0.488281 26.214844 C 0.488281 27.34375 1.40625 28.257812 2.539062 28.257812 L 27.464844 28.257812 C 28.59375 28.257812 29.511719 27.34375 29.511719 26.214844 L 29.511719 7.054688 C 29.511719 5.925781 28.59375 5.011719 27.464844 5.011719 Z M 9.535156 2.71875 C 9.535156 2.648438 9.539062 2.585938 9.546875 2.53125 L 20.902344 2.53125 C 20.910156 2.585938 20.914062 2.648438 20.914062 2.71875 L 20.914062 5.011719 L 9.535156 5.011719 Z M 27.652344 26.214844 C 27.652344 26.316406 27.566406 26.402344 27.464844 26.402344 L 2.539062 26.402344 C 2.433594 26.402344 2.351562 26.316406 2.351562 26.214844 L 2.351562 15.167969 L 11.089844 15.167969 L 11.089844 15.722656 C 11.089844 15.96875 11.289062 16.167969 11.535156 16.167969 L 18.914062 16.167969 C 19.160156 16.167969 19.359375 15.96875 19.359375 15.722656 L 19.359375 15.167969 L 27.652344 15.167969 Z M 27.652344 13.308594 L 2.351562 13.308594 L 2.351562 7.054688 C 2.351562 6.949219 2.433594 6.867188 2.539062 6.867188 L 27.464844 6.867188 C 27.566406 6.867188 27.652344 6.949219 27.652344 7.054688 Z M 27.652344 13.308594 "/>
</g>
</g>
</svg>
